<svg id="logo-60" width="80" height="80" viewBox="0 0 50 50" fill="none" xmlns="http://www.w3.org/2000/svg"><path class="stroke" d="M25.4 47.47C19.4378 47.47 13.7194 45.1036 9.50072 40.8905C5.28201 36.6774 2.90797 30.9621 2.90002 25V2.46997H47.9V25C47.8921 30.9621 45.518 36.6774 41.2993 40.8905C37.0806 45.1036 31.3622 47.47 25.4 47.47V47.47Z" stroke="black" stroke-miterlimit="10"></path><path class="stroke" d="M25.4 44.13C20.1142 44.13 15.0449 42.0303 11.3073 38.2927C7.56973 34.5551 5.46997 29.4858 5.46997 24.2V4.27002H45.32V24.2C45.32 29.4841 43.2216 34.5518 39.4861 38.2891C35.7507 42.0264 30.684 44.1274 25.4 44.13V44.13Z" stroke="black" stroke-miterlimit="10"></path><path class="stroke" d="M25.4 40.7801C23.1169 40.7853 20.8552 40.3402 18.7443 39.4701C16.6335 38.6 14.715 37.3222 13.0988 35.7096C11.4825 34.0971 10.2002 32.1815 9.32527 30.0727C8.45035 27.9639 7.99999 25.7032 8 23.4201V6.07007H42.75V23.4201C42.7513 25.6993 42.3035 27.9565 41.4322 30.0627C40.5609 32.1688 39.2831 34.0827 37.6718 35.6948C36.0606 37.307 34.1475 38.5859 32.0419 39.4584C29.9362 40.331 27.6793 40.7801 25.4 40.7801Z" stroke="black" stroke-miterlimit="10"></path><path class="stroke" d="M25.4 37.4301C21.4792 37.4301 17.7188 35.8733 14.9454 33.1018C12.172 30.3303 10.6126 26.5709 10.61 22.6501V7.86011H40.18V22.6501C40.18 26.57 38.6228 30.3294 35.851 33.1011C33.0792 35.8729 29.3199 37.4301 25.4 37.4301V37.4301Z" stroke="black" stroke-miterlimit="10"></path><path class="stroke" d="M25.4 34.0899C22.159 34.0899 19.0508 32.8025 16.7591 30.5108C14.4675 28.2191 13.18 25.1109 13.18 21.8699V9.65991H37.61V21.8699C37.61 25.1091 36.3239 28.2158 34.0344 30.5072C31.7448 32.7986 28.6392 34.0873 25.4 34.0899V34.0899Z" stroke="black" stroke-miterlimit="10"></path><path class="stroke" d="M25.4 30.74C22.8424 30.74 20.3894 29.7246 18.58 27.9171C16.7705 26.1095 15.7527 23.6576 15.75 21.1V11.46H35V21.1C34.9974 23.6489 33.9864 26.0933 32.1878 27.8995C30.3891 29.7056 27.9489 30.7268 25.4 30.74V30.74Z" stroke="black" stroke-miterlimit="10"></path><path class="stroke" d="M25.4 27.4C23.5223 27.4 21.7214 26.6541 20.3937 25.3263C19.0659 23.9986 18.32 22.1977 18.32 20.32V13.25H32.47V20.32C32.47 22.196 31.7255 23.9953 30.3999 25.3228C29.0743 26.6503 27.276 27.3973 25.4 27.4V27.4Z" stroke="black" stroke-miterlimit="10"></path><path class="stroke" d="M25.4 24.05C24.2066 24.05 23.062 23.5759 22.218 22.732C21.3741 21.8881 20.9 20.7435 20.9 19.55V15.05H29.9V19.55C29.8974 20.7427 29.4224 21.8858 28.5791 22.7291C27.7357 23.5725 26.5927 24.0474 25.4 24.05V24.05Z" stroke="black" stroke-miterlimit="10"></path></svg>